<?xml version="1.0" encoding="iso-8859-1"?>
<!-- Generator: Adobe Illustrator 16.0.0, SVG Export Plug-In . SVG Version: 6.00 Build 0)  -->
<!DOCTYPE svg PUBLIC "-//W3C//DTD SVG 1.1//EN" "http://www.w3.org/Graphics/SVG/1.1/DTD/svg11.dtd">
<svg version="1.1" id="Capa_1" xmlns="http://www.w3.org/2000/svg" xmlns:xlink="http://www.w3.org/1999/xlink" x="0px" y="0px"
	 width="945.5px" height="945.5px" viewBox="0 0 945.5 945.5" style="enable-background:new 0 0 945.5 945.5;" xml:space="preserve"
	>
<g>
	<g>
		<path d="M255.1,457.399c126.3,0,228.7-102.399,228.7-228.7C483.799,102.4,381.4,0,255.1,0C128.8,0,26.4,102.4,26.4,228.7
			C26.4,355,128.8,457.399,255.1,457.399z M160.7,124.5c0-12.4,10.1-22.5,22.5-22.5h50V71.7c0-12.4,10.1-22.5,22.5-22.5
			s22.5,10.1,22.5,22.5v30.4h43.5c12.4,0,22.5,10.1,22.5,22.5c0,12.4-10.1,22.5-22.5,22.5h-43.4v59.1h47.8
			c12.399,0,22.5,10.1,22.5,22.5v104.1c0,12.4-10.101,22.5-22.5,22.5h-47.8v30.4c0,12.399-10.1,22.5-22.5,22.5
			s-22.5-10.101-22.5-22.5v-30.4h-47.7c-12.4,0-22.5-10.1-22.5-22.5s10.1-22.5,22.5-22.5h47.7v-59.1h-50
			c-12.4,0-22.5-10.1-22.5-22.5V124.5H160.7z"/>
		<rect x="205.7" y="147" width="27.5" height="59.1"/>
		<rect x="278.2" y="251.2" width="25.3" height="59.1"/>
		<path d="M919.1,716.8c0-126.3-102.4-228.7-228.7-228.7S461.6,590.5,461.6,716.8S564,945.5,690.299,945.5
			C816.6,945.5,919.1,843.1,919.1,716.8z M786.2,648.3c0,12.4-10.1,22.5-22.5,22.5s-22.5-10.1-22.5-22.5v-15.9h-97.8V660.2h46.3
			c12.4,0,22.5,10.1,22.5,22.5c0,12.399-10.1,22.5-22.5,22.5h-46.3v17.6h46.3c12.4,0,22.5,10.1,22.5,22.5s-10.2,22.5-22.6,22.5
			h-46.301v27.9H741.1v-15.2c0-12.4,10.1-22.5,22.5-22.5c12.399,0,22.5,10.1,22.5,22.5v37.7c0,12.399-10.101,22.5-22.5,22.5H620.799
			c-12.399,0-22.5-10.101-22.5-22.5v-50.4h-14.8c-12.399,0-22.5-10.1-22.5-22.5s10.101-22.5,22.5-22.5h14.8v-17.6h-14.8
			c-12.399,0-22.5-10.101-22.5-22.5c0-12.4,10.101-22.5,22.5-22.5h14.8v-50.301c0-12.399,10.101-22.5,22.5-22.5h142.9
			c12.4,0,22.5,10.101,22.5,22.5V648.3z"/>
		<path d="M639.4,391.399l42.7,61.9c4,5.8,12.5,5.8,16.5,0l42.699-61.9c4.601-6.6-0.199-15.7-8.199-15.7h-12.5
			c-3.7-38.3-13.301-72.1-28.601-100.8c-16.8-31.6-40.2-57-69.7-75.5c-32.899-20.6-65.899-27.8-85.1-30.3
			c-8.9-1.2-16.8,5.8-16.9,14.8l-0.1,30.3c0,7.4,5.4,13.7,12.7,14.9c13.8,2.1,37,7.7,59.5,22.4c38.399,25,61.1,66.7,67.8,124.2
			h-12.5C639.6,375.7,634.9,384.7,639.4,391.399z"/>
		<path d="M209.3,578.3h12.5c3.7,38.3,13.3,72.1,28.6,100.8c16.8,31.601,40.2,57,69.7,75.5c32.899,20.601,65.899,27.8,85.1,30.3
			c8.9,1.2,16.8-5.8,16.9-14.8l0.1-30.3c0-7.4-5.4-13.7-12.7-14.9C395.6,722.8,372.4,717.2,350,702.5
			c-38.399-25-61.1-66.7-67.8-124.2h12.5c8.1,0,12.8-9,8.2-15.7l-42.7-61.8c-4-5.8-12.5-5.8-16.5,0L201,562.7
			C196.5,569.3,201.2,578.3,209.3,578.3z"/>
	</g>
</g>
<g>
</g>
<g>
</g>
<g>
</g>
<g>
</g>
<g>
</g>
<g>
</g>
<g>
</g>
<g>
</g>
<g>
</g>
<g>
</g>
<g>
</g>
<g>
</g>
<g>
</g>
<g>
</g>
<g>
</g>
</svg>
