<?xml version="1.0" encoding="iso-8859-1"?>
<!-- Generator: Adobe Illustrator 16.0.0, SVG Export Plug-In . SVG Version: 6.00 Build 0)  -->
<!DOCTYPE svg PUBLIC "-//W3C//DTD SVG 1.1//EN" "http://www.w3.org/Graphics/SVG/1.1/DTD/svg11.dtd">
<svg version="1.1" id="Capa_1" xmlns="http://www.w3.org/2000/svg" xmlns:xlink="http://www.w3.org/1999/xlink" x="0px" y="0px"
	 width="70.177px" height="70.177px" viewBox="0 0 70.177 70.177" style="enable-background:new 0 0 70.177 70.177;"
	 xml:space="preserve">
<g>
	<path d="M37.706,18.669v5.526l-8.803-8.804l8.803-8.799v5.46c11.948,0.898,21.257,7.937,21.257,16.493
		c0,1.13-0.164,2.24-0.477,3.308C56.452,24.853,48.071,19.454,37.706,18.669z M7.79,31.898v-3.342
		c-3.347-0.222-5.612-1.404-6.809-3.553C0.33,23.841,0,22.276,0,20.297h3.053c0.091,1.574,0.341,2.722,0.742,3.448
		c0.722,1.301,2.048,2.03,3.994,2.188v-9.392c-2.492-0.47-4.335-1.259-5.521-2.365c-1.192-1.099-1.788-2.63-1.788-4.584
		c0-1.743,0.64-3.317,1.922-4.721C3.684,3.467,5.477,2.76,7.79,2.736V0.445h1.636v2.262c2.287,0.156,4.041,0.832,5.265,2.016
		c1.222,1.186,1.864,2.756,1.919,4.705h-3.016c-0.079-0.872-0.319-1.629-0.707-2.259c-0.727-1.159-1.881-1.771-3.461-1.824v8.39
		c2.667,0.745,4.476,1.451,5.428,2.102c1.551,1.082,2.322,2.677,2.322,4.791c0,3.061-0.991,5.225-2.978,6.515
		c-1.101,0.711-2.692,1.181-4.772,1.413v3.342L7.79,31.898L7.79,31.898z M9.428,26.022c1.964-0.091,3.319-0.813,4.063-2.159
		c0.393-0.689,0.588-1.487,0.588-2.39c0-1.436-0.532-2.53-1.587-3.274c-0.61-0.439-1.629-0.848-3.064-1.24V26.022z M7.79,13.408
		V5.306c-1.516,0.058-2.597,0.521-3.242,1.38C3.905,7.548,3.583,8.45,3.583,9.394c0,1.135,0.375,2.025,1.132,2.674
		C5.48,12.708,6.505,13.152,7.79,13.408z M38.577,56.682l-8.8-8.8v5.522c-10.366-0.782-18.74-6.18-20.779-13.185
		c-0.313,1.069-0.475,2.176-0.475,3.305c0,8.555,9.301,15.596,21.256,16.495v5.458L38.577,56.682z M66.023,63.74
		c-1.123,1.962-2.761,2.947-4.909,2.947c-2.336,0-4.085-0.931-5.26-2.79c-0.708-1.11-1.2-2.427-1.483-3.948h9.104l0.728-2.475
		H54.109c-0.012-0.281-0.017-0.57-0.017-0.869c0-0.662,0.017-1.291,0.048-1.88h9.332l0.73-2.478h-9.711
		c0.312-1.542,0.828-2.806,1.544-3.777c1.306-1.781,3.016-2.666,5.138-2.666c1.733,0,3.074,0.481,4.037,1.443
		c0.963,0.965,1.606,2.272,1.916,3.917h2.843c-0.165-2.172-1.004-4.11-2.503-5.81c-1.503-1.707-3.613-2.564-6.33-2.564
		c-3.188,0-5.693,1.314-7.504,3.938c-1.079,1.556-1.812,3.395-2.209,5.52h-3.69l-0.729,2.478h4.142
		c-0.024,0.427-0.036,0.854-0.036,1.287c0,0.497,0.012,0.982,0.036,1.462h-3.412l-0.729,2.475h4.389
		c0.451,3.029,1.478,5.395,3.079,7.085c1.699,1.802,3.791,2.698,6.282,2.698c2.893,0,5.191-1.097,6.897-3.291
		c1.429-1.82,2.272-4.081,2.525-6.771h-2.842C67.059,61.347,66.616,62.707,66.023,63.74z"/>
</g>
<g>
</g>
<g>
</g>
<g>
</g>
<g>
</g>
<g>
</g>
<g>
</g>
<g>
</g>
<g>
</g>
<g>
</g>
<g>
</g>
<g>
</g>
<g>
</g>
<g>
</g>
<g>
</g>
<g>
</g>
</svg>
