<?xml version="1.0" encoding="iso-8859-1"?>
<!-- Generator: Adobe Illustrator 16.0.0, SVG Export Plug-In . SVG Version: 6.00 Build 0)  -->
<!DOCTYPE svg PUBLIC "-//W3C//DTD SVG 1.1//EN" "http://www.w3.org/Graphics/SVG/1.1/DTD/svg11.dtd">
<svg version="1.1" id="Capa_1" xmlns="http://www.w3.org/2000/svg" xmlns:xlink="http://www.w3.org/1999/xlink" x="0px" y="0px"
	 width="915.066px" height="915.067px" viewBox="0 0 915.066 915.067" style="enable-background:new 0 0 915.066 915.067;"
	 xml:space="preserve">
<g>
	<g>
		<path d="M71.733,461.546c8.3,17.1,31.9,19.1,42.9,3.5l92-129.9c11.2-15.8,0.9-37.8-18.4-39.399l-25-2c17.7-37.2,42.6-70.8,73.5-99
			c44-40.101,98.6-67.4,158-79c85.3-16.601,172,0.2,244.4,47.3c60.2,39.2,104.4,95.6,127.301,161.4
			c8.1,23.199,32,36.899,56.1,32.199l1-0.2c29.5-5.8,47.2-36.3,37.2-64.699c-12.2-34.601-29-67.4-50.2-97.9
			c-31.1-44.3-70-82-116-112s-96.6-50.6-150.5-61.5c-55.8-11.2-112.701-11.399-169-0.399c-77.5,15.199-148.9,50.899-206.5,103.399
			c-49.3,44.9-87,100.5-110,162.101l-31.5-2.5c-19.3-1.5-32.9,18.399-24.5,35.8L71.733,461.546z"/>
		<path d="M800.333,449.946l-92,129.9c-11.2,15.8-0.899,37.8,18.4,39.4l25,2c-17.7,37.199-42.601,70.8-73.5,99
			c-44,40.1-98.601,67.399-158,79c-85.3,16.6-172-0.2-244.401-47.301c-60.2-39.199-104.4-95.6-127.3-161.399
			c-8.1-23.2-32-36.9-56.1-32.2l-1,0.2c-29.5,5.8-47.2,36.3-37.2,64.7c12.2,34.6,29,67.399,50.2,97.899
			c31.1,44.4,70.1,82.2,116.1,112.101c46,30,96.6,50.6,150.5,61.5c28.2,5.699,56.7,8.5,85.2,8.5c27.9,0,55.9-2.7,83.8-8.2
			c77.5-15.101,149-50.9,206.6-103.3c49.301-44.9,86.9-100.5,109.9-162.101l31.5,2.5c19.3,1.5,32.9-18.399,24.5-35.8l-69.2-142.8
			C835.033,436.446,811.333,434.446,800.333,449.946z"/>
		<path d="M456.533,171.546c-19.3,0-35,15.7-35,35v46.1h-82.1c-19.301,0-35,15.7-35,35v168.2c0,19.3,15.699,35,35,35h82.1v98.2
			h-67.8c-19.3,0-35,15.7-35,35s15.7,35,35,35h67.8v46.1c0,19.3,15.7,35,35,35c19.3,0,35-15.7,35-35v-46.1h78.5
			c19.3,0,35-15.7,35-35v-168.2c0-19.3-15.7-35-35-35h-78.5v-98.2h63.8c19.3,0,35-15.699,35-35c0-19.3-15.7-35-35-35h-63.8v-46.1
			C491.533,187.247,475.934,171.546,456.533,171.546z M421.533,420.846h-47.1v-98.2h47.1V420.846z M535.133,490.846v98.2h-43.6
			v-98.2H535.133z"/>
	</g>
</g>
<g>
</g>
<g>
</g>
<g>
</g>
<g>
</g>
<g>
</g>
<g>
</g>
<g>
</g>
<g>
</g>
<g>
</g>
<g>
</g>
<g>
</g>
<g>
</g>
<g>
</g>
<g>
</g>
<g>
</g>
</svg>
